<svg width="28" height="21" viewBox="0 0 28 21" fill="none" xmlns="http://www.w3.org/2000/svg">
<path d="M4.625 0.625C3.08281 0.625 1.8125 1.89531 1.8125 3.4375V9.79469C1.24062 10.3112 0.875 11.0509 0.875 11.875V20.3125H5.5625V18.4375H22.4375V20.3125H27.125V11.875C27.125 11.0509 26.7594 10.3112 26.1875 9.79469V3.4375C26.1875 1.89531 24.9172 0.625 23.375 0.625H4.625ZM4.625 2.5H23.375C23.8953 2.5 24.3125 2.91719 24.3125 3.4375V9.0625H22.4375V8.125C22.4375 6.58281 21.1672 5.3125 19.625 5.3125H15.875C15.1569 5.3125 14.4978 5.59375 14 6.04469C13.4875 5.57644 12.8192 5.31547 12.125 5.3125H8.375C6.83281 5.3125 5.5625 6.58281 5.5625 8.125V9.0625H3.6875V3.4375C3.6875 2.91719 4.10469 2.5 4.625 2.5ZM8.375 7.1875H12.125C12.6453 7.1875 13.0625 7.60469 13.0625 8.125V9.0625H7.4375V8.125C7.4375 7.60469 7.85469 7.1875 8.375 7.1875ZM15.875 7.1875H19.625C20.1453 7.1875 20.5625 7.60469 20.5625 8.125V9.0625H14.9375V8.125C14.9375 7.60469 15.3547 7.1875 15.875 7.1875ZM3.6875 10.9375H24.3125C24.8328 10.9375 25.25 11.3547 25.25 11.875V18.4375H24.3125V16.5625H3.6875V18.4375H2.75V11.875C2.75 11.3547 3.16719 10.9375 3.6875 10.9375Z" fill="black"/>
</svg>
