<svg width="13" height="13" viewBox="0 0 13 13" fill="none" xmlns="http://www.w3.org/2000/svg">
<path d="M6 0.314453C2.55 0.314453 -0.25 3.11445 -0.25 6.56445C-0.25 10.0145 2.55 12.8145 6 12.8145C9.45 12.8145 12.25 10.0145 12.25 6.56445C12.25 3.11445 9.45 0.314453 6 0.314453ZM6 11.5645C3.25 11.5645 1 9.31445 1 6.56445C1 3.81445 3.25 1.56445 6 1.56445C8.75 1.56445 11 3.81445 11 6.56445C11 9.31445 8.75 11.5645 6 11.5645Z" fill="#4D5357"/>
<path d="M4.3501 4.63945C4.5751 4.38945 4.8501 4.18945 5.1751 4.06445C5.5001 3.91445 5.8251 3.83945 6.1751 3.83945C6.6001 3.83945 7.0251 3.93945 7.3751 4.16445C7.7251 4.36445 8.0501 4.66445 8.2751 4.98945L9.1751 4.31445C8.8251 3.86445 8.4001 3.46445 7.9001 3.21445C7.3751 2.93945 6.8251 2.81445 6.2001 2.81445C5.7001 2.81445 5.2001 2.91445 4.7501 3.11445C4.3001 3.31445 3.9001 3.58945 3.5751 3.91445C3.2501 4.26445 2.9751 4.63945 2.7751 5.11445C2.5751 5.56445 2.4751 6.06445 2.4751 6.56445C2.4751 7.08945 2.5751 7.56445 2.7751 8.01445C2.9751 8.46445 3.2251 8.86445 3.5751 9.21445C3.9001 9.56445 4.3001 9.81445 4.7501 10.0145C5.2001 10.2145 5.6751 10.3145 6.2001 10.3145C6.8251 10.3145 7.4001 10.1895 7.9001 9.91445C8.4001 9.63945 8.8501 9.26445 9.1751 8.81445L8.2751 8.13945C8.0501 8.48945 7.7501 8.76445 7.3751 8.96445C7.0001 9.16445 6.6001 9.26445 6.1751 9.26445C5.8251 9.26445 5.5001 9.18945 5.1751 9.03945C4.8751 8.88945 4.6001 8.68945 4.3501 8.46445C4.1251 8.21445 3.9251 7.93945 3.8001 7.61445C3.6751 7.28945 3.6001 6.93945 3.6001 6.56445C3.6001 6.18945 3.6751 5.83945 3.8001 5.51445C3.9251 5.18945 4.1251 4.88945 4.3501 4.63945" fill="#4D5357"/>
</svg>
