<svg width="11" height="9" viewBox="0 0 11 9" fill="none" xmlns="http://www.w3.org/2000/svg">
<path d="M7.79232 1.50184C7.98018 1.50184 8.16035 1.58086 8.29318 1.72151C8.42602 1.86216 8.50065 2.05293 8.50065 2.25184C8.50065 2.45075 8.42602 2.64152 8.29318 2.78217C8.16035 2.92282 7.98018 3.00184 7.79232 3.00184C7.60446 3.00184 7.42429 2.92282 7.29145 2.78217C7.15861 2.64152 7.08398 2.45075 7.08398 2.25184C7.08398 2.05293 7.15861 1.86216 7.29145 1.72151C7.42429 1.58086 7.60446 1.50184 7.79232 1.50184ZM9.7969 1.50184C9.65056 1.06269 9.37917 0.682413 9.02014 0.41343C8.66112 0.144447 8.23213 0 7.79232 0C7.3525 0 6.92352 0.144447 6.56449 0.41343C6.20547 0.682413 5.93408 1.06269 5.78773 1.50184H0.708984C0.521123 1.50184 0.340955 1.58086 0.208117 1.72151C0.0752783 1.86216 0.00065136 2.05293 0.00065136 2.25184C0.00065136 2.45075 0.0752783 2.64152 0.208117 2.78217C0.340955 2.92282 0.521123 3.00184 0.708984 3.00184H5.78773C5.93408 3.44099 6.20547 3.82126 6.56449 4.09025C6.92352 4.35923 7.3525 4.50368 7.79232 4.50368C8.23213 4.50368 8.66112 4.35923 9.02014 4.09025C9.37917 3.82126 9.65056 3.44099 9.7969 3.00184H10.6257C10.8135 3.00184 10.9937 2.92282 11.1265 2.78217C11.2594 2.64152 11.334 2.45075 11.334 2.25184C11.334 2.05293 11.2594 1.86216 11.1265 1.72151C10.9937 1.58086 10.8135 1.50184 10.6257 1.50184H9.7969ZM3.54232 6.00184C3.73018 6.00184 3.91035 6.08086 4.04319 6.22151C4.17602 6.36216 4.25065 6.55293 4.25065 6.75184C4.25065 6.95075 4.17602 7.14152 4.04319 7.28217C3.91035 7.42282 3.73018 7.50184 3.54232 7.50184C3.35446 7.50184 3.17429 7.42282 3.04145 7.28217C2.90861 7.14152 2.83398 6.95075 2.83398 6.75184C2.83398 6.55293 2.90861 6.36216 3.04145 6.22151C3.17429 6.08086 3.35446 6.00184 3.54232 6.00184ZM5.5469 6.00184C5.40056 5.56269 5.12917 5.18241 4.77014 4.91343C4.41112 4.64445 3.98213 4.5 3.54232 4.5C3.1025 4.5 2.67352 4.64445 2.31449 4.91343C1.95547 5.18241 1.68408 5.56269 1.53773 6.00184H0.708984C0.521123 6.00184 0.340955 6.08086 0.208117 6.22151C0.0752783 6.36216 0.00065136 6.55293 0.00065136 6.75184C0.00065136 6.95075 0.0752783 7.14152 0.208117 7.28217C0.340955 7.42282 0.521123 7.50184 0.708984 7.50184H1.53773C1.68408 7.94099 1.95547 8.32126 2.31449 8.59025C2.67352 8.85923 3.1025 9.00368 3.54232 9.00368C3.98213 9.00368 4.41112 8.85923 4.77014 8.59025C5.12917 8.32126 5.40056 7.94099 5.5469 7.50184H10.6257C10.8135 7.50184 10.9937 7.42282 11.1265 7.28217C11.2594 7.14152 11.334 6.95075 11.334 6.75184C11.334 6.55293 11.2594 6.36216 11.1265 6.22151C10.9937 6.08086 10.8135 6.00184 10.6257 6.00184H5.5469ZM7.79232 10.5018C7.98018 10.5018 8.16035 10.5809 8.29318 10.7215C8.42602 10.8622 8.50065 11.0529 8.50065 11.2518C8.50065 11.4508 8.42602 11.6415 8.29318 11.7822C8.16035 11.9228 7.98018 12.0018 7.79232 12.0018C7.60446 12.0018 7.42429 11.9228 7.29145 11.7822C7.15861 11.6415 7.08398 11.4508 7.08398 11.2518C7.08398 11.0529 7.15861 10.8622 7.29145 10.7215C7.42429 10.5809 7.60446 10.5018 7.79232 10.5018ZM9.7969 10.5018C9.65056 10.0627 9.37917 9.68241 9.02014 9.41343C8.66112 9.14445 8.23213 9 7.79232 9C7.3525 9 6.92352 9.14445 6.56449 9.41343C6.20547 9.68241 5.93408 10.0627 5.78773 10.5018H0.708984C0.521123 10.5018 0.340955 10.5809 0.208117 10.7215C0.0752783 10.8622 0.00065136 11.0529 0.00065136 11.2518C0.00065136 11.4508 0.0752783 11.6415 0.208117 11.7822C0.340955 11.9228 0.521123 12.0018 0.708984 12.0018H5.78773C5.93408 12.441 6.20547 12.8213 6.56449 13.0902C6.92352 13.3592 7.3525 13.5037 7.79232 13.5037C8.23213 13.5037 8.66112 13.3592 9.02014 13.0902C9.37917 12.8213 9.65056 12.441 9.7969 12.0018H10.6257C10.8135 12.0018 10.9937 11.9228 11.1265 11.7822C11.2594 11.6415 11.334 11.4508 11.334 11.2518C11.334 11.0529 11.2594 10.8622 11.1265 10.7215C10.9937 10.5809 10.8135 10.5018 10.6257 10.5018H9.7969Z" fill="black"/>
</svg>
