<svg width="17" height="18" viewBox="0 0 17 18" fill="none" xmlns="http://www.w3.org/2000/svg">
<path d="M8.49914 0.870117C6.82898 0.870117 5.19634 1.36538 3.80765 2.29326C2.41897 3.22115 1.33663 4.53999 0.697486 6.08301C0.0583463 7.62603 -0.108882 9.32393 0.216949 10.962C0.54278 12.6001 1.34704 14.1047 2.52801 15.2857C3.70899 16.4667 5.21364 17.2709 6.85171 17.5968C8.48977 17.9226 10.1877 17.7554 11.7307 17.1162C13.2737 16.4771 14.5925 15.3947 15.5204 14.006C16.4483 12.6174 16.9436 10.9847 16.9436 9.31456C16.9436 7.07496 16.0539 4.92708 14.4703 3.34344C12.8866 1.7598 10.7387 0.870117 8.49914 0.870117ZM8.49914 16.7035C7.03775 16.7035 5.60919 16.2701 4.39409 15.4582C3.17899 14.6463 2.23194 13.4923 1.67269 12.1422C1.11345 10.792 0.96712 9.30637 1.25222 7.87306C1.53732 6.43976 2.24105 5.12318 3.2744 4.08983C4.30776 3.05647 5.62433 2.35275 7.05764 2.06765C8.49094 1.78255 9.9766 1.92887 11.3267 2.48812C12.6769 3.04737 13.8309 3.99442 14.6428 5.20951C15.4547 6.42461 15.888 7.85318 15.888 9.31456C15.888 11.2742 15.1096 13.1536 13.7239 14.5393C12.3382 15.925 10.4588 16.7035 8.49914 16.7035Z" fill="black"/>
</svg>
