<svg width="22" height="23" viewBox="0 0 22 23" fill="none" xmlns="http://www.w3.org/2000/svg">
<path d="M21.6461 11.4986V11.4928C21.6461 8.08992 20.292 5.03393 18.1417 2.93239L18.1312 2.92281C18.1047 2.89149 18.075 2.86352 18.0428 2.83944L18.041 2.83848C16.1312 1.00386 13.6753 -0.00539681 11.1338 2.17053e-05C8.47814 2.17053e-05 6.05371 1.07906 4.2056 2.85956L4.21699 2.84902C4.19471 2.86751 4.17417 2.88837 4.15568 2.91131C3.04465 3.98766 2.15533 5.31096 1.54665 6.79171C0.937974 8.27247 0.62382 9.87783 0.625003 11.5014C0.625003 14.9034 1.97736 17.9594 4.1259 20.0619L4.13641 20.0714C4.16423 20.106 4.19535 20.1371 4.22925 20.1644L4.231 20.1654C6.14028 21.9973 8.59436 23.005 11.1338 23C13.6851 23.0043 16.1497 21.9872 18.0629 20.1404L18.0515 20.151C19.1818 19.0758 20.0878 17.7476 20.7083 16.2562C21.3287 14.7647 21.6492 13.1449 21.6479 11.5062V11.4995L21.6461 11.4986ZM17.7379 18.978C17.2173 18.5172 16.6574 18.1123 16.0659 17.7687L16.009 17.738C16.5459 16.0447 16.8691 14.0927 16.8997 12.062V12.0467H20.6319C20.506 14.6738 19.4725 17.1504 17.7406 18.9752L17.7379 18.978ZM11.6366 17.5358C12.7603 17.6019 13.8105 17.8722 14.7792 18.312L14.7162 18.2871C13.9401 20.2229 12.8479 21.553 11.6366 21.8452V17.5358ZM11.6366 16.4395V12.0467H15.9003C15.8665 13.8658 15.5782 15.6685 15.0455 17.3921L15.0796 17.2665C13.9922 16.7775 12.8356 16.498 11.6611 16.4405L11.6366 16.4395ZM11.6366 10.9504V6.55761C12.8428 6.49738 14.0303 6.20848 15.1462 5.70377L15.077 5.73156C15.5631 7.28304 15.8618 9.07121 15.9003 10.9303V10.9504H11.6366ZM11.6366 5.46133V1.1538C12.8479 1.44608 13.9401 2.77044 14.7162 4.71194C13.8105 5.12401 12.7603 5.39329 11.662 5.46037L11.6366 5.46133ZM14.1363 1.62816C15.1684 2.0048 16.1337 2.57271 16.9899 3.30709L16.9698 3.28984C16.5818 3.62332 16.1465 3.93764 15.6875 4.21075L15.6385 4.23759C15.2676 3.27999 14.7577 2.39429 14.1284 1.61474L14.1363 1.62528V1.62816ZM10.6328 1.15668V5.46133C9.5524 5.40102 8.48945 5.13848 7.49015 4.68511L7.55321 4.71002C8.33275 2.77428 9.42322 1.44513 10.6346 1.15285L10.6328 1.15668ZM6.63179 4.23471C6.157 3.95523 5.70461 3.63242 5.27943 3.26971L5.30045 3.28696C6.13178 2.57414 7.06685 2.01952 8.06648 1.64637L8.13305 1.62433C7.52029 2.38275 7.02101 3.24241 6.65369 4.17146L6.63179 4.23471ZM10.6346 6.55665V10.9495H6.37078C6.40931 9.07025 6.70799 7.28208 7.22826 5.60507L7.1941 5.73061C8.28112 6.21883 9.43705 6.49796 10.6109 6.55569L10.6346 6.55665ZM10.6346 12.0457V16.4386C9.42833 16.4988 8.24081 16.7877 7.12491 17.2924L7.1941 17.2646C6.70799 15.7141 6.40931 13.925 6.37078 12.0659V12.0457H10.6346ZM10.6346 17.5348V21.8424C9.42322 21.5501 8.331 20.2257 7.55497 18.2842C8.46063 17.8722 9.51081 17.6038 10.6092 17.5368L10.6346 17.5348ZM8.1383 21.368C7.10647 20.9925 6.14124 20.4259 5.28468 19.6929L5.30571 19.7102C5.69372 19.3767 6.12903 19.0624 6.58799 18.7892L6.63704 18.7624C7.00481 19.7204 7.51472 20.6053 8.14618 21.3814L8.1383 21.3718V21.368ZM15.6393 18.7615C16.1473 19.0633 16.5827 19.3767 16.9917 19.7265L16.9707 19.7092C16.1393 20.422 15.2043 20.9766 14.2046 21.3498L14.1381 21.3718C14.7508 20.6138 15.2501 19.7544 15.6174 18.8257L15.6393 18.7634V18.7615ZM20.6319 10.9504H16.8997C16.8729 8.96767 16.5601 7.00198 15.973 5.12592L16.009 5.25817C16.6277 4.90174 17.2135 4.48069 17.7581 4.00089L17.7371 4.01814C19.4654 5.83605 20.4993 8.30346 20.6301 10.9226L20.6319 10.9504ZM4.53318 4.0191C5.03769 4.46758 5.60438 4.87868 6.20523 5.22846L6.26217 5.25913C5.72525 6.95243 5.40205 8.90447 5.3714 10.9351V10.9504H1.6384C1.76425 8.32336 2.79775 5.84676 4.52968 4.02197L4.53318 4.0191ZM1.63927 12.0467H5.3714C5.39825 14.0295 5.71099 15.9951 6.29808 17.8712L6.26217 17.739C5.60438 18.1213 5.03856 18.5324 4.51303 18.9962L4.53406 18.979C2.80571 17.1611 1.77185 14.6937 1.64102 12.0745L1.63927 12.0467Z" fill="black"/>
</svg>
