<svg width="19" height="18" viewBox="0 0 19 18" fill="none" xmlns="http://www.w3.org/2000/svg">
<path d="M16.1492 0.764404H2.84922C1.80422 0.764404 0.949219 1.6194 0.949219 2.6644V15.9644C0.949219 17.0104 1.80422 17.8644 2.84922 17.8644H16.1492C17.1942 17.8644 18.0492 17.0104 18.0492 15.9644V2.6644C18.0492 1.6194 17.1942 0.764404 16.1492 0.764404ZM9.48402 14.5613C10.8794 14.561 12.2176 14.0065 13.2042 13.0197C14.1909 12.0329 14.7451 10.6946 14.7451 9.2992C14.7451 8.9781 14.7043 8.6684 14.6473 8.3644H16.1492V15.2196C16.1492 15.3059 16.1322 15.3914 16.0991 15.4711C16.0659 15.5508 16.0174 15.6232 15.9562 15.6841C15.8951 15.745 15.8225 15.7933 15.7426 15.826C15.6627 15.8588 15.5772 15.8755 15.4909 15.8751H3.50757C3.42125 15.8755 3.3357 15.8588 3.25584 15.826C3.17599 15.7933 3.10339 15.745 3.04222 15.6841C2.98105 15.6232 2.93251 15.5508 2.89939 15.4711C2.86627 15.3914 2.84922 15.3059 2.84922 15.2196V8.3644H4.32077C4.26282 8.6684 4.22197 8.9781 4.22197 9.2992C4.22222 10.6947 4.77669 12.033 5.76347 13.0198C6.75024 14.0065 8.08851 14.561 9.48402 14.5613ZM6.19607 9.2992C6.19607 8.86742 6.28111 8.43987 6.44635 8.04096C6.61158 7.64205 6.85377 7.27959 7.15909 6.97427C7.4644 6.66896 7.82686 6.42677 8.22578 6.26153C8.62469 6.0963 9.05224 6.01125 9.48402 6.01125C9.9158 6.01125 10.3434 6.0963 10.7423 6.26153C11.1412 6.42677 11.5036 6.66896 11.809 6.97427C12.1143 7.27959 12.3565 7.64205 12.5217 8.04096C12.6869 8.43987 12.772 8.86742 12.772 9.2992C12.772 10.1712 12.4256 11.0075 11.809 11.6241C11.1923 12.2407 10.356 12.5872 9.48402 12.5872C8.612 12.5872 7.7757 12.2407 7.15909 11.6241C6.54248 11.0075 6.19607 10.1712 6.19607 9.2992ZM15.4909 5.5144H13.9566C13.7824 5.5139 13.6155 5.44448 13.4923 5.3213C13.3691 5.19812 13.2997 5.0312 13.2992 4.857V3.32085C13.2992 2.95795 13.5937 2.6644 13.9557 2.6644H15.4899C15.8547 2.6644 16.1492 2.95795 16.1492 3.32085V4.85605C16.1492 5.218 15.8547 5.5144 15.4909 5.5144Z" fill="#2D2B2B"/>
</svg>
