<svg width="7" height="12" viewBox="0 0 7 12" fill="none" xmlns="http://www.w3.org/2000/svg">
<path d="M6.37972 11.7468C6.54214 11.5847 6.63338 11.3648 6.63338 11.1355C6.63338 10.9063 6.54214 10.6864 6.37972 10.5242L2.09122 6.24424L6.37972 1.96425C6.53753 1.80118 6.62486 1.58277 6.62289 1.35606C6.62091 1.12935 6.5298 0.912488 6.36917 0.752177C6.20853 0.591864 5.99124 0.500931 5.76408 0.498961C5.53692 0.496992 5.31808 0.584142 5.15468 0.741644L0.25366 5.63294C0.0912414 5.79509 0 6.01497 0 6.24424C0 6.47352 0.0912414 6.6934 0.25366 6.85555L5.15468 11.7468C5.31715 11.9089 5.53747 12 5.7672 12C5.99693 12 6.21725 11.9089 6.37972 11.7468Z" fill="black"/>
</svg>
