<svg width="13" height="9" viewBox="0 0 13 9" fill="none" xmlns="http://www.w3.org/2000/svg">
<path d="M10.2819 3.5312C9.66564 2.8087 9.14856 2.19245 8.52522 1.46995C8.19939 1.08745 7.78147 0.704955 7.28564 0.534955C7.20772 0.506621 7.12981 0.485371 7.05189 0.471204C6.87481 0.442871 6.68356 0.442871 6.49939 0.442871C6.31522 0.442871 6.12397 0.442871 5.93981 0.478288C5.86189 0.492455 5.78397 0.513705 5.70606 0.542038C5.21022 0.712038 4.79939 1.09454 4.46647 1.47704C3.85022 2.19954 3.33314 2.81579 2.70981 3.53829C1.78189 4.4662 0.641473 5.49329 0.853973 6.9312C1.05939 7.6537 1.57647 8.36912 2.50439 8.57454C3.02147 8.68079 4.67189 8.26287 6.42856 8.26287H6.55606C8.31272 8.26287 9.96314 8.6737 10.4802 8.57454C11.4081 8.36912 11.9252 7.64662 12.1306 6.9312C12.3502 5.4862 11.2098 4.45912 10.2819 3.5312Z" fill="black"/>
</svg>
