<svg width="15" height="13" viewBox="0 0 15 13" fill="none" xmlns="http://www.w3.org/2000/svg">
<path d="M2.95768 0.404053L14.6007 12.0471L14.041 12.6068L2.39797 0.963761L2.95768 0.404053ZM1.77018 11.6513H10.3705C10.7148 11.6513 10.8949 11.242 10.6622 10.9878L9.32822 9.53276C9.25405 9.45191 9.16389 9.38736 9.06345 9.3432C8.96301 9.29905 8.85448 9.27625 8.74477 9.27626H1.77018C1.56022 9.27626 1.35886 9.35967 1.21039 9.50813C1.06192 9.6566 0.978516 9.85796 0.978516 10.0679V10.8596C0.978516 11.0696 1.06192 11.2709 1.21039 11.4194C1.35886 11.5679 1.56022 11.6513 1.77018 11.6513ZM14.8327 9.67209C14.8327 9.56711 14.791 9.46643 14.7167 9.3922C14.6425 9.31796 14.5418 9.27626 14.4368 9.27626C14.3319 9.27626 14.2312 9.31796 14.157 9.3922C14.0827 9.46643 14.041 9.56711 14.041 9.67209V10.4638C14.041 10.5687 14.0827 10.6694 14.157 10.7437C14.2312 10.8179 14.3319 10.8596 14.4368 10.8596C14.5418 10.8596 14.6425 10.8179 14.7167 10.7437C14.791 10.6694 14.8327 10.5687 14.8327 10.4638V9.67209ZM12.4577 3.73459C12.1427 3.73459 11.8407 3.85971 11.618 4.0824C11.3953 4.3051 11.2702 4.60715 11.2702 4.92209V5.64172C11.2702 5.95666 11.3953 6.25871 11.618 6.48141C11.8407 6.70411 12.1427 6.82922 12.4577 6.82922H13.6452C13.9601 6.82922 14.2622 6.95433 14.4849 7.17703C14.7076 7.39973 14.8327 7.70178 14.8327 8.01672V8.08876C14.8327 8.19374 14.791 8.29442 14.7167 8.36866C14.6425 8.44289 14.5418 8.48459 14.4368 8.48459C14.3319 8.48459 14.2312 8.44289 14.157 8.36866C14.0827 8.29442 14.041 8.19374 14.041 8.08876V8.01672C14.041 7.91174 13.9993 7.81106 13.9251 7.73682C13.8508 7.66259 13.7502 7.62089 13.6452 7.62089H12.4577C11.9328 7.62089 11.4294 7.41237 11.0582 7.0412C10.687 6.67004 10.4785 6.16663 10.4785 5.64172V4.92209C10.4785 4.39719 10.687 3.89378 11.0582 3.52261C11.4294 3.15145 11.9328 2.94293 12.4577 2.94293C12.5627 2.94293 12.6633 2.98463 12.7376 3.05886C12.8118 3.1331 12.8535 3.23378 12.8535 3.33876C12.8535 3.44374 12.8118 3.54442 12.7376 3.61866C12.6633 3.69289 12.5627 3.73459 12.4577 3.73459Z" fill="black"/>
</svg>
