<svg width="19" height="19" viewBox="0 0 19 19" fill="none" xmlns="http://www.w3.org/2000/svg">
<path d="M16.1479 14.197C15.9924 13.1014 15.6831 12.1913 15.2201 11.4668C14.7572 10.7423 14.1051 10.3235 13.264 10.2104C12.7904 10.7334 12.2267 11.1416 11.5728 11.435C10.919 11.7283 10.2281 11.875 9.5 11.875C8.77195 11.875 8.08101 11.7283 7.42718 11.435C6.77334 11.1416 6.20964 10.7334 5.73605 10.2104C4.8949 10.3235 4.24284 10.7423 3.77985 11.4668C3.31687 12.1913 3.00763 13.1014 2.85212 14.197C3.60138 15.2573 4.55915 16.0966 5.72545 16.7151C6.89174 17.3336 8.14993 17.6429 9.5 17.6429C10.8501 17.6429 12.1083 17.3336 13.2746 16.7151C14.4408 16.0966 15.3986 15.2573 16.1479 14.197ZM13.5714 6.78571C13.5714 5.66183 13.1738 4.70229 12.3786 3.90709C11.5834 3.11189 10.6239 2.71429 9.5 2.71429C8.37612 2.71429 7.41657 3.11189 6.62137 3.90709C5.82617 4.70229 5.42857 5.66183 5.42857 6.78571C5.42857 7.9096 5.82617 8.86914 6.62137 9.66434C7.41657 10.4595 8.37612 10.8571 9.5 10.8571C10.6239 10.8571 11.5834 10.4595 12.3786 9.66434C13.1738 8.86914 13.5714 7.9096 13.5714 6.78571ZM19 9.5C19 10.7865 18.7491 12.0146 18.2472 13.1844C17.7453 14.3543 17.0721 15.365 16.2274 16.2168C15.3827 17.0685 14.3737 17.7453 13.2003 18.2472C12.027 18.7491 10.7935 19 9.5 19C8.21354 19 6.98363 18.7491 5.81027 18.2472C4.6369 17.7453 3.62612 17.0703 2.7779 16.2221C1.92969 15.3739 1.25465 14.3631 0.75279 13.1897C0.25093 12.0164 0 10.7865 0 9.5C0 8.21354 0.25093 6.98363 0.75279 5.81027C1.25465 4.6369 1.92969 3.62612 2.7779 2.7779C3.62612 1.92969 4.6369 1.25465 5.81027 0.75279C6.98363 0.25093 8.21354 0 9.5 0C10.7865 0 12.0164 0.25093 13.1897 0.75279C14.3631 1.25465 15.3739 1.92969 16.2221 2.7779C17.0703 3.62612 17.7453 4.6369 18.2472 5.81027C18.7491 6.98363 19 8.21354 19 9.5Z" fill="#A79C9C"/>
</svg>
