<svg width="17" height="16" viewBox="0 0 17 16" fill="none" xmlns="http://www.w3.org/2000/svg">
<path fill-rule="evenodd" clip-rule="evenodd" d="M8.50065 0.00537109C4.19753 0.00537109 0.708984 3.49391 0.708984 7.79704C0.708984 12.1002 4.19753 15.5887 8.50065 15.5887C12.8038 15.5887 16.2923 12.1002 16.2923 7.79704C16.2923 3.49391 12.8038 0.00537109 8.50065 0.00537109ZM7.71582 5.626C7.87874 5.30512 7.99915 5.15283 8.09903 5.0735C8.17411 5.014 8.27611 4.9637 8.50065 4.9637C8.94336 4.9637 9.20898 5.29662 9.20898 5.65645C9.20898 5.85337 9.17074 5.95112 9.0659 6.07579C8.91928 6.25004 8.64798 6.46183 8.11107 6.8167L7.79232 7.02637V8.50537C7.79232 8.69323 7.86695 8.8734 7.99978 9.00624C8.13262 9.13908 8.31279 9.21371 8.50065 9.21371C8.68851 9.21371 8.86868 9.13908 9.00152 9.00624C9.13436 8.8734 9.20898 8.69323 9.20898 8.50537V7.785C9.5929 7.52008 9.91519 7.2665 10.1489 6.98883C10.4868 6.58791 10.6257 6.16008 10.6257 5.65645C10.6257 4.6152 9.82311 3.54704 8.50065 3.54704C8.01615 3.54704 7.58761 3.6717 7.21999 3.96283C6.87715 4.23412 6.6434 4.60741 6.45215 4.98637C6.40771 5.06958 6.38034 5.16082 6.37163 5.25475C6.36293 5.34868 6.37308 5.4434 6.40148 5.53335C6.42989 5.62331 6.47597 5.70668 6.53703 5.77858C6.59809 5.85049 6.6729 5.90947 6.75706 5.95207C6.84122 5.99467 6.93305 6.02003 7.02714 6.02666C7.12124 6.0333 7.21572 6.02107 7.30502 5.99069C7.39433 5.96032 7.47667 5.91242 7.54721 5.84979C7.61776 5.78716 7.67508 5.71108 7.71582 5.626ZM9.20898 10.9845C9.20898 10.7967 9.13436 10.6165 9.00152 10.4837C8.86868 10.3508 8.68851 10.2762 8.50065 10.2762C8.31279 10.2762 8.13262 10.3508 7.99978 10.4837C7.86695 10.6165 7.79232 10.7967 7.79232 10.9845V11.3387C7.79232 11.5266 7.86695 11.7067 7.99978 11.8396C8.13262 11.9724 8.31279 12.047 8.50065 12.047C8.68851 12.047 8.86868 11.9724 9.00152 11.8396C9.13436 11.7067 9.20898 11.5266 9.20898 11.3387V10.9845Z" fill="black"/>
</svg>
