<svg width="7" height="12" viewBox="0 0 7 12" fill="none" xmlns="http://www.w3.org/2000/svg">
<path d="M0.620281 0.253156C0.457863 0.415301 0.366621 0.635187 0.366621 0.86446C0.366621 1.09373 0.457863 1.31362 0.620281 1.47576L4.90878 5.75576L0.620281 10.0357C0.462466 10.1988 0.375141 10.4172 0.377115 10.6439C0.379089 10.8706 0.470203 11.0875 0.630834 11.2478C0.791465 11.4081 1.00876 11.4991 1.23592 11.501C1.46308 11.503 1.68192 11.4159 1.84532 11.2584L6.74634 6.36706C6.90876 6.20491 7 5.98503 7 5.75576C7 5.52648 6.90876 5.3066 6.74634 5.14445L1.84532 0.253156C1.68285 0.0910604 1.46253 0 1.2328 0C1.00307 0 0.782748 0.0910604 0.620281 0.253156Z" fill="black"/>
</svg>
