<svg width="13" height="18" viewBox="0 0 13 18" fill="none" xmlns="http://www.w3.org/2000/svg">
<path d="M7.1364 6.64293C7.25327 6.2923 7.7484 6.2923 7.86527 6.64293L8.55059 8.70099C8.70143 9.1534 8.95558 9.56446 9.29289 9.90159C9.6302 10.2387 10.0414 10.4926 10.4939 10.6432L12.5509 11.3286C12.9015 11.4454 12.9015 11.9406 12.5509 12.0574L10.4928 12.7427C10.0404 12.8936 9.62936 13.1477 9.29224 13.485C8.95511 13.8224 8.70118 14.2336 8.55059 14.6861L7.86527 16.7431C7.84008 16.8198 7.79127 16.8867 7.72583 16.9341C7.66039 16.9815 7.58164 17.007 7.50084 17.007C7.42003 17.007 7.34129 16.9815 7.27584 16.9341C7.2104 16.8867 7.1616 16.8198 7.1364 16.7431L6.45109 14.685C6.30035 14.2327 6.04636 13.8217 5.70924 13.4846C5.37212 13.1475 4.96114 12.8935 4.50884 12.7427L2.45077 12.0574C2.374 12.0322 2.30714 11.9834 2.25974 11.918C2.21234 11.8525 2.18682 11.7738 2.18682 11.693C2.18682 11.6122 2.21234 11.5334 2.25974 11.468C2.30714 11.4026 2.374 11.3537 2.45077 11.3286L4.50884 10.6432C4.96114 10.4925 5.37212 10.2385 5.70924 9.90139C6.04636 9.56428 6.30035 9.15329 6.45109 8.70099L7.1364 6.64293ZM3.03196 1.22524C3.0472 1.17923 3.07655 1.13919 3.11584 1.11081C3.15513 1.08243 3.20237 1.06715 3.25084 1.06715C3.29931 1.06715 3.34654 1.08243 3.38583 1.11081C3.42513 1.13919 3.45447 1.17923 3.46971 1.22524L3.8809 2.45986C4.06471 3.01024 4.49609 3.44161 5.04646 3.62543L6.28109 4.03661C6.3271 4.05185 6.36714 4.0812 6.39552 4.12049C6.4239 4.15978 6.43917 4.20702 6.43917 4.25549C6.43917 4.30396 6.4239 4.35119 6.39552 4.39049C6.36714 4.42978 6.3271 4.45913 6.28109 4.47436L5.04646 4.88555C4.77502 4.97599 4.52837 5.1284 4.32606 5.33071C4.12375 5.53302 3.97133 5.77967 3.8809 6.05111L3.46971 7.28574C3.45447 7.33175 3.42513 7.37179 3.38583 7.40017C3.34654 7.42855 3.29931 7.44383 3.25084 7.44383C3.20237 7.44383 3.15513 7.42855 3.11584 7.40017C3.07655 7.37179 3.0472 7.33175 3.03196 7.28574L2.62077 6.05111C2.53034 5.77967 2.37792 5.53302 2.17561 5.33071C1.9733 5.1284 1.72665 4.97599 1.45521 4.88555L0.220586 4.47436C0.174574 4.45913 0.134534 4.42978 0.106154 4.39049C0.0777749 4.35119 0.0625 4.30396 0.0625 4.25549C0.0625 4.20702 0.0777749 4.15978 0.106154 4.12049C0.134534 4.0812 0.174574 4.05185 0.220586 4.03661L1.45521 3.62543C1.72665 3.53499 1.9733 3.38258 2.17561 3.18027C2.37792 2.97796 2.53034 2.73131 2.62077 2.45986L3.03196 1.22524ZM10.5428 0.110677C10.5533 0.0804233 10.5729 0.0541898 10.599 0.0356233C10.6251 0.0170569 10.6563 0.00708008 10.6883 0.00708008C10.7204 0.00708008 10.7516 0.0170569 10.7777 0.0356233C10.8038 0.0541898 10.8234 0.0804233 10.8339 0.110677L11.108 0.933052C11.2302 1.30068 11.5181 1.58861 11.8858 1.7108L12.7081 1.98493C12.7384 1.99542 12.7646 2.01507 12.7832 2.04116C12.8018 2.06724 12.8117 2.09847 12.8117 2.13049C12.8117 2.16251 12.8018 2.19373 12.7832 2.21982C12.7646 2.24591 12.7384 2.26556 12.7081 2.27605L11.8858 2.55018C11.7046 2.61044 11.54 2.71212 11.405 2.84713C11.27 2.98213 11.1683 3.14676 11.108 3.32793L10.8339 4.1503C10.8234 4.18055 10.8038 4.20679 10.7777 4.22536C10.7516 4.24392 10.7204 4.2539 10.6883 4.2539C10.6563 4.2539 10.6251 4.24392 10.599 4.22536C10.5729 4.20679 10.5533 4.18055 10.5428 4.1503L10.2686 3.32793C10.2084 3.14676 10.1067 2.98213 9.9717 2.84713C9.83669 2.71212 9.67207 2.61044 9.4909 2.55018L8.66959 2.27605C8.63933 2.26556 8.6131 2.24591 8.59453 2.21982C8.57597 2.19373 8.56599 2.16251 8.56599 2.13049C8.56599 2.09847 8.57597 2.06724 8.59453 2.04116C8.6131 2.01507 8.63933 1.99542 8.66959 1.98493L9.49196 1.7108C9.85959 1.58861 10.1475 1.30068 10.2697 0.933052L10.5428 0.111739V0.110677Z" fill="black"/>
</svg>
