<svg width="15" height="15" viewBox="0 0 15 15" fill="none" xmlns="http://www.w3.org/2000/svg">
<path d="M3.66257 4.53638C3.2943 5.09901 3.09712 5.76152 3.09708 6.4401C3.09815 7.35011 3.45284 8.22052 4.08018 8.86093C4.70724 9.50105 5.55522 9.85918 6.43748 9.86019L3.66257 4.53638ZM3.66257 4.53638C4.0308 3.97381 4.5531 3.53692 5.16223 3.27935M3.66257 4.53638L5.16223 3.27935M5.16223 3.27935C5.77124 3.02184 6.44076 2.95463 7.08658 3.08577M5.16223 3.27935L7.08658 3.08577M7.08658 3.08577C7.73247 3.21692 8.32719 3.54091 8.79498 4.01844M7.08658 3.08577L8.79498 4.01844M8.79498 4.01844C9.26287 4.49608 9.58263 5.10586 9.71228 5.77122M8.79498 4.01844L9.71228 5.77122M9.71228 5.77122C9.84193 6.43662 9.7753 7.12622 9.52122 7.7524M9.71228 5.77122L9.52122 7.7524M9.52122 7.7524C9.26718 8.37849 8.83765 8.91196 8.28853 9.28652M9.52122 7.7524L8.28853 9.28652M8.28853 9.28652C7.73969 9.66088 7.09556 9.86008 6.43752 9.86019L8.28853 9.28652ZM13.6206 13.143L13.9633 12.7931L13.6206 12.4432L10.698 9.45977C11.372 8.47325 11.6989 7.27879 11.6182 6.07242C11.5274 4.71502 10.9275 3.44339 9.93989 2.52294C8.952 1.60219 7.65235 1.10405 6.311 1.13516C4.96967 1.16628 3.6938 1.72412 2.74819 2.68944C1.80288 3.65444 1.26013 4.95229 1.22985 6.31245C1.19958 7.6726 1.68401 8.99401 2.58513 10.0015C3.48654 11.0094 4.73599 11.6258 6.07449 11.719C7.25757 11.8015 8.4267 11.4694 9.39222 10.7875L12.3029 13.7589L12.6601 14.1235L13.0173 13.7589L13.6206 13.143Z" fill="white" stroke="white"/>
</svg>
