<svg width="15" height="15" viewBox="0 0 15 15" fill="none" xmlns="http://www.w3.org/2000/svg">
<path d="M3.66328 4.53641C3.29504 5.09901 3.09786 5.76149 3.0978 6.44003C3.09884 7.35008 3.45354 8.22053 4.0809 8.86096C4.70796 9.50108 5.55594 9.85921 6.4382 9.86022L3.66328 4.53641ZM3.66328 4.53641C4.03151 3.97384 4.55381 3.53695 5.16294 3.27938M3.66328 4.53641L5.16294 3.27938M5.16294 3.27938C5.77195 3.02187 6.44148 2.95466 7.0873 3.0858M5.16294 3.27938L7.0873 3.0858M7.0873 3.0858C7.73318 3.21695 8.32791 3.54094 8.79569 4.01847M7.0873 3.0858L8.79569 4.01847M8.79569 4.01847C9.26358 4.49611 9.58335 5.1059 9.713 5.77125M8.79569 4.01847L9.713 5.77125M9.713 5.77125C9.84265 6.43665 9.77602 7.12625 9.52194 7.75243M9.713 5.77125L9.52194 7.75243M9.52194 7.75243C9.2679 8.37852 8.83837 8.91199 8.28924 9.28655M9.52194 7.75243L8.28924 9.28655M8.28924 9.28655C7.7404 9.66091 7.09628 9.86011 6.43824 9.86022L8.28924 9.28655ZM13.6213 13.143L13.964 12.7932L13.6213 12.4433L10.6987 9.4598C11.3727 8.47328 11.6996 7.27882 11.6189 6.07245C11.5282 4.71505 10.9282 3.44342 9.9406 2.52297C8.95272 1.60222 7.65307 1.10408 6.31172 1.13519C4.97039 1.16631 3.69452 1.72415 2.74891 2.68947C1.8036 3.65447 1.26085 4.95232 1.23057 6.31248C1.2003 7.67263 1.68473 8.99404 2.58585 10.0016C3.48726 11.0094 4.73671 11.6258 6.0752 11.7191C7.25828 11.8015 8.42742 11.4694 9.39294 10.7875L12.3036 13.7589L12.6608 14.1235L13.018 13.7589L13.6213 13.143Z" fill="black" stroke="black"/>
</svg>
