<svg width="14" height="15" viewBox="0 0 14 15" fill="none" xmlns="http://www.w3.org/2000/svg">
<path d="M2.93405 3.90259C2.56581 4.46519 2.36862 5.12767 2.36856 5.80621C2.36961 6.71626 2.7243 7.58671 3.35166 8.22714C3.97872 8.86726 4.8267 9.2254 5.70897 9.2264L2.93405 3.90259ZM2.93405 3.90259C3.30228 3.34002 3.82458 2.90313 4.43371 2.64556M2.93405 3.90259L4.43371 2.64556M4.43371 2.64556C5.04272 2.38805 5.71224 2.32084 6.35806 2.45198M4.43371 2.64556L6.35806 2.45198M6.35806 2.45198C7.00395 2.58313 7.59868 2.90712 8.06646 3.38465M6.35806 2.45198L8.06646 3.38465M8.06646 3.38465C8.53435 3.86229 8.85412 4.47208 8.98376 5.13743M8.06646 3.38465L8.98376 5.13743M8.98376 5.13743C9.11342 5.80283 9.04679 6.49243 8.79271 7.11861M8.98376 5.13743L8.79271 7.11861M8.79271 7.11861C8.53867 7.7447 8.10914 8.27817 7.56001 8.65273M8.79271 7.11861L7.56001 8.65273M7.56001 8.65273C7.01117 9.02709 6.36705 9.22629 5.709 9.2264L7.56001 8.65273ZM12.8921 12.5092L13.2348 12.1593L12.8921 11.8094L9.96948 8.82598C10.6435 7.83946 10.9704 6.645 10.8897 5.43863C10.7989 4.08123 10.1989 2.8096 9.21137 1.88915C8.22348 0.968399 6.92384 0.470261 5.58248 0.501374C4.24115 0.532487 2.96528 1.09033 2.01967 2.05565C1.07437 3.02065 0.531613 4.3185 0.501338 5.67866C0.471064 7.03881 0.955494 8.36022 1.85662 9.36776C2.75803 10.3756 4.00747 10.992 5.34597 11.0852C6.52905 11.1677 7.69819 10.8356 8.6637 10.1537L11.5744 13.1251L11.9316 13.4897L12.2888 13.1251L12.8921 12.5092Z" fill="white" stroke="white"/>
</svg>
