<svg width="15" height="15" viewBox="0 0 15 15" fill="none" xmlns="http://www.w3.org/2000/svg">
<path d="M3.6633 4.53642C3.29505 5.09902 3.09787 5.7615 3.09781 6.44004C3.09886 7.35009 3.45355 8.22053 4.08091 8.86096C4.70797 9.50109 5.55595 9.85922 6.43821 9.86023L3.6633 4.53642ZM3.6633 4.53642C4.03153 3.97385 4.55383 3.53696 5.16296 3.27939M3.6633 4.53642L5.16296 3.27939M5.16296 3.27939C5.77197 3.02187 6.44149 2.95467 7.08731 3.0858M5.16296 3.27939L7.08731 3.0858M7.08731 3.0858C7.7332 3.21696 8.32793 3.54095 8.79571 4.01848M7.08731 3.0858L8.79571 4.01848M8.79571 4.01848C9.2636 4.49612 9.58336 5.1059 9.71301 5.77126M8.79571 4.01848L9.71301 5.77126M9.71301 5.77126C9.84267 6.43666 9.77603 7.12626 9.52196 7.75243M9.71301 5.77126L9.52196 7.75243M9.52196 7.75243C9.26791 8.37852 8.83838 8.912 8.28926 9.28655M9.52196 7.75243L8.28926 9.28655M8.28926 9.28655C7.74042 9.66092 7.0963 9.86012 6.43825 9.86023L8.28926 9.28655ZM13.6213 13.1431L13.9641 12.7932L13.6213 12.4433L10.6987 9.45981C11.3728 8.47329 11.6996 7.27883 11.6189 6.07246C11.5282 4.71506 10.9282 3.44343 9.94062 2.52298C8.95273 1.60223 7.65308 1.10409 6.31173 1.1352C4.9704 1.16631 3.69453 1.72416 2.74892 2.68947C1.80361 3.65447 1.26086 4.95233 1.23059 6.31249C1.20031 7.67263 1.68474 8.99405 2.58587 10.0016C3.48728 11.0094 4.73672 11.6258 6.07522 11.7191C7.2583 11.8015 8.42743 11.4694 9.39295 10.7876L12.3037 13.7589L12.6608 14.1235L13.018 13.7589L13.6213 13.1431Z" fill="white" stroke="white"/>
</svg>
