<svg width="12" height="10" viewBox="0 0 12 10" fill="none" xmlns="http://www.w3.org/2000/svg">
<path d="M1.34519 3.3375L4.56853 2.90508L6.00945 0.208598C6.04881 0.13477 6.11355 0.0750043 6.19353 0.0386762C6.39412 -0.05273 6.63787 0.0234419 6.73816 0.208598L8.17908 2.90508L11.4024 3.3375C11.4913 3.34922 11.5725 3.3879 11.6347 3.44649C11.71 3.51784 11.7514 3.61383 11.75 3.71337C11.7485 3.81291 11.7044 3.90786 11.6271 3.97735L9.295 6.07618L9.84598 9.03985C9.8589 9.10879 9.85063 9.17969 9.82212 9.24452C9.79361 9.30935 9.74599 9.3655 9.68466 9.40662C9.62333 9.44773 9.55075 9.47216 9.47515 9.47714C9.39954 9.48212 9.32394 9.46744 9.25691 9.43477L6.37381 8.03555L3.4907 9.43477C3.41199 9.47344 3.32059 9.48633 3.23299 9.47227C3.01209 9.43711 2.86355 9.24375 2.90164 9.03985L3.45262 6.07618L1.12049 3.97735C1.05701 3.91993 1.01512 3.84493 1.00242 3.7629C0.968144 3.55782 1.12303 3.36797 1.34519 3.3375Z" fill="black"/>
</svg>
