<svg width="16" height="13" viewBox="0 0 16 13" fill="none" xmlns="http://www.w3.org/2000/svg">
<path d="M15.7623 2.10567C15.2057 2.35234 14.6077 2.51901 13.979 2.59434C14.6277 2.2062 15.113 1.59532 15.3443 0.875675C14.7349 1.23767 14.0679 1.49247 13.3723 1.62901C12.9046 1.12959 12.285 0.798559 11.6099 0.687324C10.9347 0.57609 10.2417 0.690869 9.63849 1.01384C9.03525 1.33682 8.55552 1.84992 8.27377 2.47348C7.99202 3.09704 7.92402 3.79618 8.08033 4.46234C6.84546 4.40034 5.63742 4.07937 4.53462 3.52028C3.43181 2.96118 2.45889 2.17645 1.679 1.21701C1.41233 1.67701 1.259 2.21034 1.259 2.77834C1.2587 3.28967 1.38462 3.79317 1.62559 4.24416C1.86655 4.69516 2.21511 5.0797 2.64033 5.36368C2.14718 5.34798 1.66492 5.21473 1.23367 4.97501V5.01501C1.23362 5.73217 1.48169 6.42726 1.93579 6.98234C2.38989 7.53742 3.02205 7.9183 3.725 8.06034C3.26752 8.18415 2.78789 8.20239 2.32233 8.11368C2.52066 8.73075 2.907 9.27036 3.42724 9.65696C3.94749 10.0436 4.57561 10.2578 5.22367 10.2697C4.12356 11.1333 2.76493 11.6017 1.36633 11.5997C1.11859 11.5997 0.871051 11.5853 0.625 11.5563C2.04465 12.4691 3.69723 12.9536 5.385 12.9517C11.0983 12.9517 14.2217 8.21968 14.2217 4.11567C14.2217 3.98234 14.2183 3.84767 14.2123 3.71434C14.8199 3.27499 15.3443 2.73094 15.761 2.10768L15.7623 2.10567Z" fill="#2D2B2B"/>
</svg>
