<svg width="7" height="13" viewBox="0 0 7 13" fill="none" xmlns="http://www.w3.org/2000/svg">
<path d="M0.644067 1.10818C0.480528 1.26952 0.387764 1.4892 0.386174 1.71893C0.384583 1.94865 0.474298 2.1696 0.635588 2.33319L4.89431 6.65127L0.576223 10.91C0.417281 11.0723 0.328443 11.2905 0.328845 11.5177C0.329247 11.7449 0.418855 11.9628 0.57837 12.1245C0.737885 12.2863 0.954545 12.3789 1.18168 12.3824C1.40882 12.386 1.62827 12.3002 1.79275 12.1435L6.72758 7.27649C6.89112 7.11515 6.98388 6.89547 6.98547 6.66574C6.98706 6.43602 6.89735 6.21507 6.73606 6.05148L1.86908 1.11666C1.70774 0.953119 1.48805 0.860355 1.25833 0.858765C1.0286 0.857174 0.807654 0.946889 0.644067 1.10818Z" fill="black"/>
</svg>
